<mxfile host="app.diagrams.net" modified="2021-12-30T09:06:34.137Z" agent="5.0 (Windows NT 10.0; Win64; x64) AppleWebKit/537.36 (KHTML, like Gecko) Chrome/96.0.4664.110 Safari/537.36" etag="NwCv6GdQGjrV2kE-rEH1" version="16.1.0" type="github">
  <diagram id="C5RBs43oDa-KdzZeNtuy" name="Page-1">
    <mxGraphModel dx="1422" dy="762" grid="1" gridSize="10" guides="1" tooltips="1" connect="1" arrows="1" fold="1" page="1" pageScale="1" pageWidth="827" pageHeight="1169" math="0" shadow="0">
      <root>
        <mxCell id="WIyWlLk6GJQsqaUBKTNV-0" />
        <mxCell id="WIyWlLk6GJQsqaUBKTNV-1" parent="WIyWlLk6GJQsqaUBKTNV-0" />
        <mxCell id="-UUezeTevvvEWhEe3A4x-33" value="Start" style="ellipse" vertex="1" parent="WIyWlLk6GJQsqaUBKTNV-1">
          <mxGeometry x="50" y="150" width="80" height="30" as="geometry" />
        </mxCell>
        <mxCell id="-UUezeTevvvEWhEe3A4x-34" value="Init" style="rounded=1;" vertex="1" parent="WIyWlLk6GJQsqaUBKTNV-1">
          <mxGeometry x="180" y="150" width="80" height="30" as="geometry" />
        </mxCell>
        <mxCell id="-UUezeTevvvEWhEe3A4x-35" value="" style="edgeStyle=elbowEdgeStyle;elbow=horizontal;" edge="1" source="-UUezeTevvvEWhEe3A4x-33" target="-UUezeTevvvEWhEe3A4x-34" parent="WIyWlLk6GJQsqaUBKTNV-1">
          <mxGeometry relative="1" as="geometry" />
        </mxCell>
        <mxCell id="-UUezeTevvvEWhEe3A4x-36" value="Build" style="rounded=1;" vertex="1" parent="WIyWlLk6GJQsqaUBKTNV-1">
          <mxGeometry x="310" y="150" width="80" height="30" as="geometry" />
        </mxCell>
        <mxCell id="-UUezeTevvvEWhEe3A4x-37" value="" style="edgeStyle=elbowEdgeStyle;elbow=horizontal;" edge="1" source="-UUezeTevvvEWhEe3A4x-34" target="-UUezeTevvvEWhEe3A4x-36" parent="WIyWlLk6GJQsqaUBKTNV-1">
          <mxGeometry relative="1" as="geometry" />
        </mxCell>
        <mxCell id="-UUezeTevvvEWhEe3A4x-38" value="PPDM" style="rounded=1;" vertex="1" parent="WIyWlLk6GJQsqaUBKTNV-1">
          <mxGeometry x="440" y="150" width="80" height="30" as="geometry" />
        </mxCell>
        <mxCell id="-UUezeTevvvEWhEe3A4x-39" value="" style="edgeStyle=elbowEdgeStyle;elbow=horizontal;" edge="1" source="-UUezeTevvvEWhEe3A4x-36" target="-UUezeTevvvEWhEe3A4x-38" parent="WIyWlLk6GJQsqaUBKTNV-1">
          <mxGeometry relative="1" as="geometry" />
        </mxCell>
        <mxCell id="-UUezeTevvvEWhEe3A4x-40" value="Finalize" style="rounded=1;" vertex="1" parent="WIyWlLk6GJQsqaUBKTNV-1">
          <mxGeometry x="570" y="150" width="80" height="30" as="geometry" />
        </mxCell>
        <mxCell id="-UUezeTevvvEWhEe3A4x-41" value="" style="edgeStyle=elbowEdgeStyle;elbow=horizontal;" edge="1" source="-UUezeTevvvEWhEe3A4x-38" target="-UUezeTevvvEWhEe3A4x-40" parent="WIyWlLk6GJQsqaUBKTNV-1">
          <mxGeometry relative="1" as="geometry" />
        </mxCell>
        <mxCell id="-UUezeTevvvEWhEe3A4x-42" value="Post" style="rounded=1;" vertex="1" parent="WIyWlLk6GJQsqaUBKTNV-1">
          <mxGeometry x="700" y="150" width="80" height="30" as="geometry" />
        </mxCell>
        <mxCell id="-UUezeTevvvEWhEe3A4x-43" value="" style="edgeStyle=elbowEdgeStyle;elbow=horizontal;" edge="1" source="-UUezeTevvvEWhEe3A4x-40" target="-UUezeTevvvEWhEe3A4x-42" parent="WIyWlLk6GJQsqaUBKTNV-1">
          <mxGeometry relative="1" as="geometry" />
        </mxCell>
      </root>
    </mxGraphModel>
  </diagram>
</mxfile>
